<?xml version="1.0" encoding="UTF-8" standalone="no"?>
<!-- Created with Inkscape (http://www.inkscape.org/) -->

<svg
   width="700"
   height="295"
   viewBox="0 0 185.20833 78.052085"
   version="1.1"
   id="svg5"
   inkscape:version="1.1 (c68e22c387, 2021-05-23)"
   sodipodi:docname="National Election Board of Ethiopia logo.svg"
   xmlns:inkscape="http://www.inkscape.org/namespaces/inkscape"
   xmlns:sodipodi="http://sodipodi.sourceforge.net/DTD/sodipodi-0.dtd"
   xmlns="http://www.w3.org/2000/svg"
   xmlns:svg="http://www.w3.org/2000/svg">
  <sodipodi:namedview
     id="namedview7"
     pagecolor="#ffffff"
     bordercolor="#999999"
     borderopacity="1"
     inkscape:pageshadow="0"
     inkscape:pageopacity="0"
     inkscape:pagecheckerboard="0"
     inkscape:document-units="mm"
     showgrid="false"
     inkscape:snap-global="true"
     inkscape:zoom="1.0457143"
     inkscape:cx="350"
     inkscape:cy="147.7459"
     inkscape:window-width="1366"
     inkscape:window-height="705"
     inkscape:window-x="-8"
     inkscape:window-y="-8"
     inkscape:window-maximized="1"
     inkscape:current-layer="layer1"
     showguides="false"
     fit-margin-top="0"
     fit-margin-left="0"
     fit-margin-right="0"
     fit-margin-bottom="0"
     units="px"
     width="700px" />
  <defs
     id="defs2" />
  <g
     inkscape:label="Layer 1"
     inkscape:groupmode="layer"
     id="layer1"
     transform="translate(-13.66989,-99.049937)">
    <g
       id="g4632"
       style="fill:#00b5b9;fill-opacity:1;stroke-width:1.02587"
       transform="matrix(0.97477764,0,0,0.97477764,-85.737794,5.1006408)">
      <path
         d="m 125.33996,169.5645 q 0.60241,-0.25759 1.25883,-0.25759 0.65642,0 1.25468,0.25759 0.60241,0.25342 1.03449,0.6855 0.43207,0.43208 0.6855,1.03033 0.25759,0.5941 0.25759,1.25053 0,0.52763 -0.16203,1.02202 -0.16204,0.4944 -0.46116,0.89323 -0.29913,0.39469 -0.69797,0.69382 -0.39884,0.29913 -0.89323,0.46531 -0.49024,0.16203 -1.01787,0.16203 -0.52763,0 -1.02202,-0.16203 -0.49025,-0.16618 -0.88909,-0.46531 -0.39884,-0.29913 -0.69796,-0.69382 -0.29913,-0.39883 -0.46116,-0.89323 -0.16203,-0.49439 -0.16203,-1.02202 0,-0.65643 0.25343,-1.25053 0.25759,-0.59825 0.68966,-1.03033 0.43207,-0.43208 1.03034,-0.6855 z m -0.15372,4.49524 q 0.58579,0.63565 1.41255,0.63565 0.82676,0 1.41256,-0.63565 0.58578,-0.63565 0.58578,-1.52888 0,-0.5858 -0.27004,-1.08019 -0.2659,-0.49855 -0.72705,-0.78521 -0.457,-0.28667 -1.00125,-0.28667 -0.54425,0 -1.00541,0.28667 -0.457,0.28666 -0.72705,0.78521 -0.26589,0.49439 -0.26589,1.08019 0,0.89323 0.5858,1.52888 z"
         id="path6532"
         style="font-size:8.72766px;line-height:1.25;font-family:MDGROTESQUE;-inkscape-font-specification:MDGROTESQUE;opacity:1;fill:#00b5b9;fill-opacity:1;stroke-width:0.174573" />
      <path
         id="path6546"
         style="font-size:8.72766px;line-height:1.25;font-family:MDGROTESQUE;-inkscape-font-specification:MDGROTESQUE;opacity:1;fill:#00b5b9;fill-opacity:1;stroke-width:0.634361"
         d="m 644.26953,640.78125 c -1.58011,0 -3.11596,0.30793 -4.60547,0.92187 -1.48955,0.61395 -2.79105,1.44549 -3.9082,2.49219 -1.11715,1.03669 -2.0132,2.28284 -2.6875,3.74219 -0.67423,1.45935 -1.01367,2.99513 -1.01367,4.60547 0,2.12356 0.56615,4.09627 1.69336,5.91797 1.12724,1.81164 2.62604,3.24037 4.49804,4.28711 1.88206,1.0467 3.88975,1.56836 6.02344,1.56836 1.3587,0 2.73216,-0.21938 4.12109,-0.66211 1.39896,-0.45294 3.34623,-1.79266 4.28321,-2.86914 l 0.49219,-0.5293 -2.28907,-2.29297 c -0.24264,0.23282 -0.54509,0.48928 -0.91601,0.76953 -0.4529,0.33222 -0.9415,0.61779 -1.46485,0.85938 -0.51329,0.2313 -1.14192,0.42864 -1.88671,0.58984 -0.73471,0.16101 -1.51451,0.24219 -2.33985,0.24219 -1.4493,0 -2.76386,-0.35424 -3.94141,-1.0586 -1.17754,-0.7045 -2.09384,-1.65386 -2.74804,-2.85156 -0.65435,-1.19769 -0.98047,-2.51026 -0.98047,-3.93945 0,-1.43925 0.32616,-2.75934 0.98047,-3.95703 0.6542,-1.20775 1.5705,-2.16464 2.74804,-2.86914 1.17755,-0.70466 2.49211,-1.05664 3.94141,-1.05664 0.82534,0 1.60514,0.0812 2.33985,0.24218 0.74479,0.16101 1.37342,0.35666 1.88671,0.58789 0.44371,0.19643 0.86277,0.43127 1.25586,0.70704 l 2.6836,-2.6836 -0.34766,-0.22851 c -1.11715,-0.80519 -2.35968,-1.42825 -3.72851,-1.8711 -1.35871,-0.44284 -2.72106,-0.66406 -4.08985,-0.66406 z"
         transform="scale(0.26458333)" />
      <path
         d="m 183.76869,169.52766 q 0.60599,-0.25912 1.26631,-0.25912 0.66033,0 1.26213,0.25912 0.606,0.25493 1.04064,0.68958 0.43464,0.43464 0.68957,1.03644 0.25911,0.59763 0.25911,1.25796 0,0.53077 -0.16299,1.02809 -0.16299,0.49734 -0.46389,0.89853 -0.30091,0.39703 -0.70211,0.69794 -0.40121,0.30091 -0.89855,0.46808 -0.49314,0.16299 -1.02391,0.16299 -0.53077,0 -1.02809,-0.16299 -0.49315,-0.16717 -0.89436,-0.46808 -0.40121,-0.30091 -0.70211,-0.69794 -0.30091,-0.40119 -0.4639,-0.89853 -0.16299,-0.49732 -0.16299,-1.02809 0,-0.66033 0.25494,-1.25796 0.2591,-0.6018 0.69375,-1.03644 0.43464,-0.43465 1.03645,-0.68958 z m -0.15463,4.52194 q 0.58927,0.63943 1.42094,0.63943 0.83167,0 1.42094,-0.63943 0.58928,-0.63943 0.58928,-1.53796 0,-0.58928 -0.27165,-1.08661 -0.26747,-0.5015 -0.73137,-0.78987 -0.45972,-0.28838 -1.0072,-0.28838 -0.54748,0 -1.01137,0.28838 -0.45973,0.28837 -0.73138,0.78987 -0.26747,0.49733 -0.26747,1.08661 0,0.89853 0.58928,1.53796 z"
         id="path6552"
         style="font-size:8.72766px;line-height:1.25;font-family:MDGROTESQUE;-inkscape-font-specification:MDGROTESQUE;opacity:1;fill:#00b5b9;fill-opacity:1;stroke-width:0.17561" />
      <path
         d="m 202.77158,172.21313 q 0.13637,0.0426 0.27274,0.10228 0.14063,0.0597 0.34945,0.19177 0.20882,0.13211 0.36223,0.29405 0.15342,0.16193 0.26422,0.42189 0.11506,0.25569 0.11506,0.554 0,0.43042 -0.14063,0.7756 -0.13637,0.34093 -0.37502,0.56679 -0.23438,0.22586 -0.56252,0.37502 -0.32814,0.14489 -0.68611,0.20881 -0.35797,0.0639 -0.76708,0.0639 h -1.99867 v -6.41364 h 1.83247 q 0.40484,0 0.73298,0.0725 0.32814,0.0682 0.54548,0.17898 0.21734,0.1108 0.37928,0.26848 0.16194,0.15768 0.24717,0.31109 0.0895,0.14916 0.14063,0.32814 0.0554,0.17473 0.0682,0.30257 0.017,0.12359 0.017,0.2557 0,0.22586 -0.0937,0.43894 -0.0895,0.21307 -0.2216,0.3537 -0.13211,0.14064 -0.25996,0.23013 -0.12784,0.0895 -0.2216,0.11932 z m -1.90065,2.44613 h 0.89066 q 0.54122,0 0.82675,-0.23438 0.28978,-0.23865 0.28978,-0.64776 0,-0.16194 -0.0597,-0.30683 -0.0554,-0.14915 -0.17899,-0.277 -0.12358,-0.12785 -0.34944,-0.20456 -0.22587,-0.0767 -0.52844,-0.0767 h -0.89066 z m 0.59236,-4.19763 h -0.59236 v 1.35092 h 0.64349 q 0.37502,0 0.57958,-0.2003 0.20881,-0.20029 0.20881,-0.46877 0,-0.31961 -0.21734,-0.4986 -0.21307,-0.18325 -0.62218,-0.18325 z"
         id="path6556"
         style="font-size:8.72766px;line-height:1.25;font-family:MDGROTESQUE;-inkscape-font-specification:MDGROTESQUE;opacity:1;fill:#00b5b9;fill-opacity:1;stroke-width:0.179069" />
      <path
         d="m 207.0042,169.61201 q 0.59779,-0.25562 1.24919,-0.25562 0.65139,0 1.24507,0.25562 0.5978,0.25148 1.02656,0.68025 0.42877,0.42877 0.68026,1.02244 0.25561,0.58955 0.25561,1.24095 0,0.52359 -0.16079,1.01419 -0.16078,0.49061 -0.45763,0.88639 -0.29683,0.39166 -0.69262,0.6885 -0.39578,0.29684 -0.88639,0.46175 -0.48648,0.16079 -1.01007,0.16079 -0.52359,0 -1.01419,-0.16079 -0.48649,-0.16491 -0.88228,-0.46175 -0.39577,-0.29684 -0.69262,-0.6885 -0.29683,-0.39578 -0.45762,-0.88639 -0.16079,-0.4906 -0.16079,-1.01419 0,-0.6514 0.2515,-1.24095 0.2556,-0.59367 0.68436,-1.02244 0.42877,-0.42877 1.02245,-0.68025 z m -0.15254,4.46081 q 0.5813,0.63078 1.40173,0.63078 0.82043,0 1.40174,-0.63078 0.58131,-0.63079 0.58131,-1.51717 0,-0.58131 -0.26799,-1.07192 -0.26385,-0.49473 -0.72148,-0.7792 -0.4535,-0.28447 -0.99358,-0.28447 -0.54008,0 -0.99771,0.28447 -0.4535,0.28447 -0.72148,0.7792 -0.26385,0.49061 -0.26385,1.07192 0,0.88638 0.58131,1.51717 z"
         id="path6558"
         style="font-size:8.72766px;line-height:1.25;font-family:MDGROTESQUE;-inkscape-font-specification:MDGROTESQUE;opacity:1;fill:#00b5b9;fill-opacity:1;stroke-width:0.173236" />
      <path
         id="path6562"
         style="font-size:8.72766px;line-height:1.25;font-family:MDGROTESQUE;-inkscape-font-specification:MDGROTESQUE;opacity:1;fill:#00b5b9;fill-opacity:1;stroke-width:0.179069"
         d="m 219.12719,169.54582 v 6.22145 h 1.1436 v -2.93109 h 0.42788 l 2.17713,2.93109 h 1.52135 l -2.3921,-3.02617 h 5.3e-4 c 0.0426,0 0.0965,-0.006 0.16175,-0.0171 0.0682,-0.0113 0.15628,-0.0249 0.2558,-0.0641 1.39744,-0.55013 0.90101,-3.11421 -1.06971,-3.11415 z m 1.1436,0.91583 h 0.85221 c 1.0265,0 1.25978,1.40147 0,1.40147 h -0.85221 z"
         sodipodi:nodetypes="ccccccccscsscccccc" />
      <path
         d="m 236.1103,169.6393 q 0.59515,-0.25449 1.24366,-0.25449 0.6485,0 1.23955,0.25449 0.59514,0.25036 1.022,0.67724 0.42687,0.42686 0.67724,1.0179 0.25447,0.58694 0.25447,1.23545 0,0.52127 -0.16007,1.00969 -0.16007,0.48844 -0.45559,0.88246 -0.29552,0.38993 -0.68955,0.68545 -0.39403,0.29553 -0.88246,0.4597 -0.48433,0.16008 -1.00559,0.16008 -0.52127,0 -1.00971,-0.16008 -0.48432,-0.16417 -0.87835,-0.4597 -0.39403,-0.29552 -0.68955,-0.68545 -0.29552,-0.39402 -0.4556,-0.88246 -0.16007,-0.48842 -0.16007,-1.00969 0,-0.64851 0.25037,-1.23545 0.25448,-0.59104 0.68134,-1.0179 0.42686,-0.42688 1.01791,-0.67724 z m -0.15186,4.44103 q 0.57873,0.62798 1.39552,0.62798 0.81679,0 1.39551,-0.62798 0.57873,-0.62799 0.57873,-1.51044 0,-0.57874 -0.26679,-1.06717 -0.26269,-0.49253 -0.71828,-0.77574 -0.45149,-0.28321 -0.98917,-0.28321 -0.53769,0 -0.99329,0.28321 -0.45149,0.28321 -0.71828,0.77574 -0.26268,0.48843 -0.26268,1.06717 0,0.88245 0.57873,1.51044 z"
         id="path6566"
         style="font-size:8.72766px;line-height:1.25;font-family:MDGROTESQUE;-inkscape-font-specification:MDGROTESQUE;opacity:1;fill:#00b5b9;fill-opacity:1;stroke-width:0.172468" />
      <path
         d="m 271.48922,169.62898 q 0.59614,-0.25491 1.24574,-0.25491 0.64961,0 1.24163,0.25491 0.59616,0.25079 1.02374,0.67838 0.42759,0.42758 0.67839,1.01962 0.2549,0.58793 0.2549,1.23752 0,0.52215 -0.16035,1.0114 -0.16034,0.48926 -0.45636,0.88395 -0.29602,0.39058 -0.69071,0.68659 -0.3947,0.29603 -0.88395,0.46049 -0.48514,0.16034 -1.00729,0.16034 -0.52214,0 -1.0114,-0.16034 -0.48513,-0.16446 -0.87983,-0.46049 -0.39469,-0.29601 -0.69071,-0.68659 -0.29602,-0.39469 -0.45636,-0.88395 -0.16035,-0.48925 -0.16035,-1.0114 0,-0.64959 0.25079,-1.23752 0.25491,-0.59204 0.6825,-1.01962 0.42758,-0.42759 1.01962,-0.67838 z m -0.15212,4.44851 q 0.5797,0.62904 1.39786,0.62904 0.81817,0 1.39787,-0.62904 0.5797,-0.62904 0.5797,-1.51299 0,-0.5797 -0.26724,-1.06896 -0.26313,-0.49336 -0.71948,-0.77705 -0.45225,-0.28369 -0.99085,-0.28369 -0.53859,0 -0.99495,0.28369 -0.45224,0.28369 -0.71948,0.77705 -0.26313,0.48926 -0.26313,1.06896 0,0.88395 0.5797,1.51299 z"
         id="path6578"
         style="font-size:8.72766px;line-height:1.25;font-family:MDGROTESQUE;-inkscape-font-specification:MDGROTESQUE;opacity:1;fill:#00b5b9;fill-opacity:1;stroke-width:0.172758" />
      <path
         d="m 281.86322,171.4631 q 0,0.49008 -0.17046,0.87362 -0.17046,0.38354 -0.47304,0.62644 -0.2983,0.24291 -0.68611,0.37928 -0.3878,0.13211 -0.85231,0.15768 h -1.14209 v 2.26715 h -1.26568 v -6.40512 h 2.33959 q 0.63923,0 1.14636,0.24717 0.50712,0.24717 0.80543,0.72873 0.29831,0.48155 0.29831,1.12505 z m -3.32401,0.93328 h 0.85231 q 0.32388,0 0.56252,-0.081 0.23865,-0.081 0.35797,-0.18751 0.11933,-0.1108 0.18751,-0.25995 0.0682,-0.14916 0.081,-0.23865 0.017,-0.0938 0.017,-0.19177 0,-0.098 -0.017,-0.19177 -0.0128,-0.098 -0.081,-0.24717 -0.0682,-0.15342 -0.18751,-0.26422 -0.11932,-0.1108 -0.35797,-0.19177 -0.23864,-0.081 -0.56252,-0.081 h -0.85231 z"
         id="path6580"
         style="font-size:8.72766px;line-height:1.25;font-family:MDGROTESQUE;-inkscape-font-specification:MDGROTESQUE;opacity:1;fill:#00b5b9;fill-opacity:1;stroke-width:0.179069" />
      <path
         id="path11254"
         style="font-size:8.72766px;line-height:1.25;font-family:MDGROTESQUE;-inkscape-font-specification:MDGROTESQUE;opacity:1;fill:#00b5b9;fill-opacity:1;stroke-width:0.179069"
         d="m 102.56989,169.50231 v 6.26474 h 1.25729 v -4.14652 l 3.46439,4.14652 h 0.80098 v -6.26474 h -1.25677 v 4.00648 l -3.35587,-4.00648 z m 9.04028,0 -2.76314,6.26474 h 1.39785 l 0.53278,-1.29966 h 2.58227 l 0.53279,1.29966 h 1.40611 l -2.77089,-6.26474 z m 3.54552,0 v 1.08004 h 1.66449 v 5.1847 h 1.25729 v -5.1847 h 1.6645 v -1.08004 z m 5.73091,0 v 6.26474 h 1.26556 v -6.26474 z m 10.16734,0 v 6.26474 h 1.25729 v -4.14652 l 3.46439,4.14652 h 0.8015 v -6.26474 h -1.25729 v 4.00648 l -3.35587,-4.00648 z m 9.13846,0 -2.76314,6.26474 h 1.39785 l 0.53227,-1.29966 h 2.58279 l 0.53278,1.29966 h 1.40611 l -2.7714,-6.26474 z m 4.59404,0 v 6.26474 h 3.76979 v -1.10794 h -2.51302 v -5.1568 z m 12.6323,0 v 6.26474 h 3.52433 v -1.10794 h -2.26704 v -5.1568 z m 16.31838,0 v 1.08004 h 1.6645 v 5.1847 h 1.25729 v -5.1847 h 1.66398 v -1.08004 z m 5.70818,0 v 6.26474 h 1.26556 v -6.26474 z m 10.19835,0 v 6.26474 h 1.25728 v -4.14652 l 3.46439,4.14652 h 0.8015 v -6.26474 h -1.25728 v 4.00648 l -3.35587,-4.00648 z m 64.42707,0 v 1.08004 h 1.66502 v 5.1847 h 1.25677 v -5.1847 h 1.66449 v -1.08004 z m 5.73195,0 v 6.26474 h 1.26607 v -2.87218 h 2.99982 v 2.87218 h 1.26556 v -6.26474 h -1.26556 v 2.28462 h -2.99982 v -2.28462 z m 7.27915,0 v 6.26474 h 1.26556 v -6.26474 z m 15.77888,0 v 6.26474 h 1.26555 v -6.26474 z m 4.84105,0 -2.76315,6.26474 h 1.39785 l 0.53279,-1.29966 h 2.58226 l 0.53279,1.29966 h 1.40613 l -2.77091,-6.26474 z m -125.11382,0.009 v 6.24768 h 3.82458 v -1.09967 h -2.56729 v -1.77251 h 1.77354 v -1.09967 h -1.77354 v -1.17667 h 2.46083 v -1.09916 z m -10.23606,0.008 v 6.24768 h 3.82457 v -1.09916 h -2.56729 v -1.77302 h 1.77354 v -1.09916 h -1.77354 v -1.17667 h 2.46083 v -1.09967 z m 96.95325,0.007 v 6.24096 h 3.7698 v -1.07229 h -2.543 v -1.73013 h 1.87068 v -1.0728 h -1.87068 v -1.29294 h 2.45618 v -1.0728 z m -34.76325,0.0501 -2.73058,6.19084 h 1.35288 l 0.51574,-1.25781 h 2.49958 l 0.51522,1.25781 h 1.36116 l -2.73834,-6.19084 z m 27.32598,0.002 v 6.18877 h 1.25729 V 172.895 h 1.82779 v -1.09916 h -1.82779 v -1.11827 h 2.34817 v -1.09916 z m -16.71061,0.0884 v 6.1004 h 2.63756 c 0.4471,-0.0325 0.81595,-0.10958 1.10588,-0.23151 0.56361,-0.24929 1.01471,-0.62708 1.35341,-1.13378 0.34142,-0.50671 0.51211,-1.06802 0.51211,-1.68311 0,-0.41185 -0.0761,-0.80337 -0.22789,-1.1746 -0.15174,-0.37122 -0.36972,-0.70032 -0.65423,-0.98754 -0.59341,-0.59341 -1.35611,-0.88986 -2.28823,-0.88986 z m 1.20716,1.04851 h 1.15445 c 0.34955,0 0.65831,0.0567 0.92656,0.17053 0.27096,0.11381 0.48518,0.26702 0.64234,0.45941 0.15715,0.19237 0.27488,0.40517 0.35347,0.6382 0.0786,0.23032 0.11782,0.47523 0.11782,0.73535 0,0.25742 -0.0407,0.50428 -0.12196,0.74001 -0.0813,0.23303 -0.20187,0.44582 -0.36173,0.63821 -0.15716,0.18967 -0.36568,0.34146 -0.62581,0.45526 -0.25742,0.1111 -0.55012,0.1664 -0.87798,0.1664 h -1.20716 z m -114.29535,0.59014 0.84801,2.06293 h -1.68775 z m 28.58172,0 0.84801,2.06293 h -1.68775 z m 147.50935,0 0.84801,2.06293 h -1.68724 z m -73.23068,0.14366 0.82114,1.99627 h -1.63349 z" />
    </g>
    <g
       id="g1712"
       style="fill:#00b5b9;fill-opacity:1;stroke-width:1.02587"
       transform="matrix(0.97477764,0,0,0.97477764,-85.737794,5.1006408)">
      <path
         d="m 107.76807,154.60061 q 0,-0.45033 -0.05,-0.71719 -0.0334,-0.28354 -0.11675,-0.43365 -0.0834,-0.15011 -0.23351,-0.18347 -0.15011,-0.05 -0.36693,-0.05 -0.33358,0 -0.70052,0.21683 -0.36693,0.21683 -0.53372,0.5504 -0.15011,0.28355 -0.26687,0.51705 -0.11675,0.21683 -0.20014,0.41697 -0.0667,0.20015 -0.10008,0.41697 -0.0334,0.20015 -0.0334,0.45034 0,0.0834 0,0.25018 0.0167,0.16679 0.0334,0.35026 0.0334,0.16678 0.0834,0.33357 0.05,0.15011 0.13343,0.21683 0.8673,-0.21683 1.33431,-0.48369 0.48369,-0.28354 0.70052,-0.58376 0.2335,-0.30022 0.26686,-0.61712 0.05,-0.33358 0.05,-0.65048 z m 1.66789,-0.26686 q -0.0167,0.51705 -0.11675,0.93402 -0.0834,0.40029 -0.46701,0.71719 -0.38361,0.3169 -1.16752,0.58376 -0.78391,0.25019 -2.18494,0.46701 0.48369,0.38362 0.78391,0.75055 0.30022,0.36694 0.30022,0.75055 v 1.91808 q 0,0.58376 0.10008,1.03409 0.11675,0.45033 0.5504,0.68383 l -1.60117,0.28355 q -0.26687,-0.10008 -0.41698,-0.23351 -0.15011,-0.13343 -0.21682,-0.33358 -0.0667,-0.21682 -0.0834,-0.53372 -0.0167,-0.3169 -0.0167,-0.78391 v -1.31763 q 0,-0.21683 -0.21682,-0.45033 -0.21683,-0.23351 -0.48369,-0.56709 -0.26686,-0.33357 -0.48369,-0.81726 -0.21682,-0.50037 -0.21682,-1.25092 0,-0.48369 0.15011,-1.05077 0.15011,-0.56708 0.61712,-1.05077 0.46701,-0.50037 1.31763,-0.81727 0.85062,-0.33358 2.25165,-0.33358 0.3169,0 0.60044,0.0667 0.30022,0.05 0.50037,0.20015 0.21682,0.15011 0.35025,0.43365 0.13344,0.26686 0.15011,0.71719 z"
         id="path20290"
         style="font-size:16.6789px;line-height:1.25;font-family:'Ethiopia Jiret';-inkscape-font-specification:'Ethiopia Jiret';letter-spacing:0.396875px;fill:#00b5b9;fill-opacity:1;stroke-width:0.342207" />
      <path
         d="m 121.06497,162.65652 q -0.3169,0 -0.60044,-0.13343 -0.28355,-0.13343 -0.35026,-0.58376 l -2.4518,0.51705 q -0.15011,-0.13344 -0.25018,-0.26687 -0.0834,-0.13343 -0.15011,-0.30022 -0.0667,-0.18347 -0.11675,-0.40029 -0.05,-0.23351 -0.10008,-0.5504 l -0.3169,-1.80133 q -0.15011,-0.8673 -0.3169,-1.35099 -0.15011,-0.48368 -0.3169,-0.70051 -0.15011,-0.23351 -0.31689,-0.26686 -0.15011,-0.05 -0.30022,-0.05 h -0.15011 l -0.41698,0.0834 -1.58449,3.636 q -0.0667,0.13344 -0.13343,0.3169 -0.05,0.16679 -0.05,0.30022 0,0.3169 0.11675,0.51705 0.13343,0.20015 0.38362,0.40029 l -1.818,0.43366 q -0.23351,-0.0167 -0.41698,-0.18347 -0.18346,-0.16679 -0.21682,-0.65048 v -0.0167 q 0,-0.25018 0.30022,-1.06745 0.30022,-0.81726 0.88398,-2.03482 l 1.53446,-3.169 -1.5845,0.45034 q 0.0834,-0.10008 0.13343,-0.33358 0.0667,-0.25019 0.0667,-0.48369 0,-0.50037 -0.25018,-0.9507 -0.23351,-0.45033 -0.56709,-0.58376 l 1.70125,-0.51705 q 0.0834,-0.0167 0.11675,-0.0167 0.05,-0.0167 0.0334,-0.0167 0.20015,0 0.30022,0.21682 0.11675,0.20015 0.18347,0.45033 l 0.13343,1.5011 1.83468,-0.38361 -1.06745,1.95143 2.18494,-0.28354 q 0.45033,0 0.75055,0.33358 0.30022,0.3169 0.41697,0.98405 l 0.50037,2.90213 q 0.0333,0.20015 0.0834,0.43365 0.05,0.23351 0.11675,0.41697 0.0834,0.18347 0.20015,0.3169 0.11675,0.11676 0.28354,0.11676 l 0.58376,-0.15011 v -0.0334 q 0,-0.28354 0.20015,-0.53373 0.21683,-0.26686 0.51705,-0.3169 l 1.31763,-0.21682 q -0.0834,0.15011 -0.13343,0.38361 -0.0334,0.23351 -0.0334,0.38362 0.0167,0.38361 0.18347,0.66715 0.16679,0.26687 0.43365,0.38362 z"
         id="path20292"
         style="font-size:16.6789px;line-height:1.25;font-family:'Ethiopia Jiret';-inkscape-font-specification:'Ethiopia Jiret';letter-spacing:0.396875px;fill:#00b5b9;fill-opacity:1;stroke-width:0.342207" />
      <path
         d="m 128.59314,155.9516 0.13344,-1.78464 q 0.0333,-0.26686 -0.13344,-0.46701 -0.15011,-0.21682 -0.51704,-0.21682 l -1.86804,0.10007 q 0,-0.38361 -0.11675,-0.68383 -0.11675,-0.30022 -0.30022,-0.50037 -0.18347,-0.20015 -0.41697,-0.28354 -0.21683,-0.10008 -0.43365,-0.0667 l -1.15085,0.18347 q 0.26686,0.13343 0.43365,0.3169 0.16679,0.18347 0.16679,0.46701 0,0.2335 -0.11675,0.50036 -0.11675,0.26687 -0.36694,0.41698 0.83395,-0.05 1.35099,-0.0667 0.51705,-0.0334 0.80059,-0.05 0.28354,-0.0167 0.4003,-0.0167 0.11675,0 0.15011,0 0.15011,0 0.2335,0.0667 0.10007,0.0667 0.13343,0.16679 0.05,0.10007 0.05,0.21683 0.0167,0.10007 0.0167,0.18346 0,0.05 -0.10008,1.61786 l -2.85209,0.15011 q -0.0834,0.0334 -0.11675,0.10007 -0.0167,0.05 -0.0167,0.10007 0,0.11676 0.10007,0.25019 0.10008,0.11675 0.10008,0.41697 0,0.18347 -0.13343,0.45033 -0.13344,0.26686 -0.43366,0.50037 0.15011,0.0667 0.41698,0.13343 0.28354,0.05 0.56708,0.05 0.6338,0 0.9507,-0.48369 0.33357,-0.48369 0.35025,-1.38435 l 1.05077,-0.05 -0.28354,4.31984 q 0,0.46701 0.0167,0.78391 0.0167,0.30022 0.0834,0.51704 0.0667,0.20015 0.20014,0.33358 0.15011,0.11675 0.41698,0.21683 l 1.65121,-0.28355 q -0.46701,-0.26686 -0.58376,-0.7839 -0.10008,-0.51705 -0.11676,-1.16753 l 0.26687,-4.03629 1.11748,-0.05 q 0,0.45033 0.11675,0.78391 0.11676,0.3169 0.30022,0.53373 0.18347,0.21682 0.4003,0.31689 0.2335,0.10008 0.46701,0.10008 0.61712,0 1.06745,-0.21683 -0.38362,-0.2335 -0.45033,-0.50037 -0.0667,-0.28354 -0.0667,-0.467 0,-0.30022 0.0667,-0.43366 0.0834,-0.15011 0.0834,-0.26686 0,-0.0334 -0.0334,-0.10007 -0.0333,-0.0834 -0.11675,-0.0834 z"
         id="path20294"
         style="font-size:16.6789px;line-height:1.25;font-family:'Ethiopia Jiret';-inkscape-font-specification:'Ethiopia Jiret';letter-spacing:0.396875px;fill:#00b5b9;fill-opacity:1;stroke-width:0.342207" />
      <path
         d="m 138.07421,154.60061 q 0,-0.45033 -0.05,-0.71719 -0.0334,-0.28354 -0.11675,-0.43365 -0.0834,-0.15011 -0.23351,-0.18347 -0.15011,-0.05 -0.36693,-0.05 -0.33358,0 -0.70052,0.21683 -0.36693,0.21683 -0.53372,0.5504 -0.3169,0.56709 -0.46701,1.11749 -0.13343,0.53373 -0.13343,1.03409 0,0.18347 0.05,0.46701 0.05,0.28354 0.15011,0.56708 0.90066,-0.21682 1.38435,-0.51704 0.48369,-0.3169 0.70052,-0.66716 0.2335,-0.35025 0.26686,-0.70051 0.05,-0.36694 0.05,-0.68384 z m 5.25386,1.30096 q -0.55041,0.15011 -0.83395,0.18347 -0.28354,0.0334 -0.46701,0.0334 -0.45033,0 -0.85062,-0.38361 -0.40029,-0.38362 -0.43365,-1.05077 l -1.01741,0.11675 q -0.0334,0.43365 -0.18347,0.83395 -0.15011,0.38361 -0.58376,0.71719 -0.41698,0.3169 -1.18421,0.58376 -0.75055,0.26686 -1.98478,0.46701 0.48368,0.38361 0.7839,0.75055 0.3169,0.35026 0.3169,0.73387 v 1.5845 q 0,0.58376 0.10008,1.03409 0.11675,0.45033 0.5504,0.68383 l -1.60117,0.28354 q -0.26687,-0.10007 -0.41698,-0.2335 -0.15011,-0.13343 -0.21682,-0.33358 -0.0667,-0.21682 -0.0834,-0.53372 -0.0167,-0.3169 -0.0167,-0.78391 v -0.98406 q 0,-0.21682 -0.21682,-0.45033 -0.21683,-0.2335 -0.48369,-0.56708 -0.26686,-0.33358 -0.48369,-0.81727 -0.21682,-0.50036 -0.21682,-1.25091 0,-0.48369 0.15011,-1.10081 0.15011,-0.6338 0.61712,-1.1842 0.467,-0.55041 1.31763,-0.93402 0.85062,-0.38362 2.25165,-0.38362 0.3169,0 0.60044,0.0667 0.30022,0.05 0.50037,0.20015 0.21682,0.15011 0.35025,0.43365 0.13344,0.26686 0.15011,0.71719 v 0.21683 l 2.83542,-0.33358 q 0.13343,0 0.16679,0.0667 0.0333,0.05 0.0333,0.13344 0,0.13343 -0.0667,0.31689 -0.05,0.18347 -0.05,0.33358 0,0.23351 0.0834,0.46701 0.10007,0.21683 0.58376,0.36694 z"
         id="path20296"
         style="font-size:16.6789px;line-height:1.25;font-family:'Ethiopia Jiret';-inkscape-font-specification:'Ethiopia Jiret';letter-spacing:0.396875px;fill:#00b5b9;fill-opacity:1;stroke-width:0.342207" />
      <path
         d="m 153.42116,156.33522 q -0.41698,0.36693 -1.10081,0.36693 -0.58376,-0.0667 -0.9507,-0.467 -0.35025,-0.4003 -0.45033,-0.96738 l -0.75055,0.21683 q 0,0.40029 -0.10007,0.73387 -0.10008,0.33357 -0.33358,0.65047 -0.21683,0.3169 -0.58376,0.65048 -0.35026,0.33358 -0.8673,0.73387 0.0667,-0.0167 0.26686,-0.05 0.21682,-0.0334 0.43365,-0.0667 0.21683,-0.05 0.40029,-0.0667 0.18347,-0.0333 0.21683,-0.0333 0.5504,0 0.90066,0.38361 0.35026,0.38362 0.38361,1.40103 l 0.05,1.00073 q 0.0667,0.48369 0.16679,0.81727 0.10007,0.3169 0.45033,0.40029 l -1.43439,0.41698 q -0.31689,0 -0.61711,-0.38362 -0.28355,-0.38361 -0.28355,-1.13416 v -1.00074 q 0,-0.8673 -0.2335,-1.1842 -0.21683,-0.33358 -0.70051,-0.33358 -0.4003,0.0334 -1.05078,0.6338 -0.65047,0.58376 -1.08412,1.66789 -0.0167,0.0834 -0.0334,0.18347 0,0.0834 0,0.16679 0,0.36693 0.15011,0.63379 0.16679,0.26687 0.46701,0.33358 l -1.66789,0.41698 q -0.4003,-0.16679 -0.55041,-0.51705 -0.15011,-0.36694 -0.15011,-0.8673 0.10008,-0.75055 0.76723,-1.70125 0.68384,-0.9507 2.08487,-1.818 l -1.13417,0.15011 h -0.15011 q -0.0167,0.0167 -0.11675,0.0167 -0.33358,0 -0.58376,-0.0334 -0.23351,-0.05 -0.4003,-0.18347 -0.15011,-0.13343 -0.2335,-0.38361 -0.0834,-0.25019 -0.0834,-0.66716 0,-0.30022 0.11676,-0.65048 0.11675,-0.36693 0.36693,-0.68383 0.26686,-0.33358 0.66716,-0.58376 0.41697,-0.25019 1.00073,-0.33358 0.0334,-0.48369 0.05,-0.66716 0.0167,-0.18346 0.0167,-0.21682 v -0.0334 -0.0334 q 0,-0.20014 -0.10008,-0.35025 -0.10007,-0.16679 -0.40029,-0.28355 l 1.56782,-0.38361 q 0.36693,0.05 0.50036,0.28354 0.15011,0.21683 0.15011,0.51705 l -0.0834,0.8673 q 0.30022,-0.0834 0.46701,-0.0834 0.51705,0 0.91734,0.33357 0.40029,0.33358 0.40029,1.08413 l 2.36841,-0.61712 q 0.13343,0.0667 0.16679,0.10008 0.0334,0.0334 0.0334,0.11675 v 0.10007 q 0,0.05 -0.0167,0.11675 0,0.0667 0,0.15011 0,0.25019 0.11676,0.58377 0.13343,0.31689 0.60044,0.5504 z m -4.85356,-1.13417 q 0,-0.46701 -0.18347,-0.68383 -0.16679,-0.23351 -0.75055,-0.23351 -0.71719,0 -1.06745,0.4003 -0.35026,0.40029 -0.35026,1.40103 0,0.41697 0.0167,0.66715 0.0167,0.25018 0.0667,0.40029 0.0667,0.13344 0.20014,0.18347 0.15011,0.0334 0.4003,0.0334 0.40029,0 0.83394,-0.21683 0.45033,-0.2335 0.70052,-0.93401 0.0667,-0.28354 0.10007,-0.53373 0.0334,-0.25018 0.0334,-0.48369 z"
         id="path20298"
         style="font-size:16.6789px;line-height:1.25;font-family:'Ethiopia Jiret';-inkscape-font-specification:'Ethiopia Jiret';letter-spacing:0.396875px;fill:#00b5b9;fill-opacity:1;stroke-width:0.342207" />
      <path
         d="m 159.95585,160.90524 -2.70199,1.06745 q 0.0334,0.13343 0.0334,0.3169 0.0167,0.18346 0.0167,0.28354 0,0.3169 -0.30022,0.5504 -0.30022,0.25018 -0.81726,0.33358 l -1.36767,0.2335 q 0.10007,-0.16679 0.18346,-0.30022 0.0834,-0.11675 0.13343,-0.2335 0.0667,-0.11675 0.10008,-0.23351 0.0334,-0.11675 0.0334,-0.28354 0,-0.33357 -0.0834,-0.61712 -0.0667,-0.30022 -0.28354,-0.36693 0.70051,-0.20015 0.93402,-0.25019 0.2335,-0.05 0.28354,-0.05 0.2335,0 0.5504,0.05 0.3169,0.05 0.50037,0.35026 l 1.00073,-0.46701 q -0.28354,-0.40029 -0.61711,-0.91734 -0.33358,-0.51704 -0.6338,-1.11748 -0.28354,-0.60044 -0.48369,-1.25092 -0.20015,-0.66716 -0.20015,-1.33431 0,-0.61712 0.11675,-1.21756 0.11676,-0.61712 0.53373,-1.11749 0.43365,-0.51704 1.25092,-0.8673 0.81726,-0.35026 2.21829,-0.45033 0.30022,0 0.58376,0.0667 0.30022,0.0667 0.53373,0.23351 0.25018,0.16679 0.40029,0.46701 0.15011,0.28354 0.15011,0.73387 0,0.51704 -0.13343,0.98405 -0.13343,0.46701 -0.5504,0.88399 -0.41698,0.40029 -1.20089,0.73387 -0.76722,0.33358 -2.03482,0.58376 0.05,0.26686 0.18347,0.56708 0.13343,0.30022 0.35025,0.68384 0.23351,0.36693 0.55041,0.85062 0.33358,0.48369 0.76723,1.10081 z m -1.91808,-3.45253 q 0.83395,-0.20015 1.28428,-0.53373 0.46701,-0.35026 0.66715,-0.75055 0.21683,-0.40029 0.25019,-0.80059 0.05,-0.40029 0.05,-0.71719 0,-0.45033 -0.0334,-0.71719 -0.0334,-0.28354 -0.11676,-0.41698 -0.0834,-0.15011 -0.2335,-0.18346 -0.13343,-0.05 -0.33358,-0.05 -0.3169,0 -0.65048,0.21683 -0.31689,0.21682 -0.50036,0.5504 -0.30022,0.5504 -0.43365,1.08413 -0.13343,0.53372 -0.13343,1.03409 0,0.0834 0,0.25018 0.0167,0.15011 0.0334,0.33358 0.0334,0.18347 0.0667,0.36694 0.0334,0.18347 0.0834,0.33358 z"
         id="path20300"
         style="font-size:16.6789px;line-height:1.25;font-family:'Ethiopia Jiret';-inkscape-font-specification:'Ethiopia Jiret';letter-spacing:0.396875px;fill:#00b5b9;fill-opacity:1;stroke-width:0.342207" />
      <path
         d="m 176.97812,162.47305 q -0.48368,-0.16678 -0.60044,-0.46701 -0.11675,-0.31689 -0.11675,-1.01741 v -6.23791 q 0,-0.40029 -0.05,-0.70051 -0.0334,-0.30022 -0.16678,-0.48369 -0.13344,-0.20015 -0.4003,-0.30022 -0.25018,-0.10007 -0.66715,-0.10007 -0.88399,0 -1.28428,0.8673 -0.38361,0.85062 -0.38361,2.35173 v 3.83614 q 0,0.70052 0.10007,1.23424 0.11675,0.51705 0.56708,0.73387 l -1.60117,0.28354 q -0.23351,-0.10007 -0.38362,-0.2335 -0.13343,-0.13343 -0.21682,-0.33358 -0.0834,-0.21682 -0.11675,-0.53372 -0.0167,-0.3169 -0.0167,-0.78391 v -3.66936 l -0.9507,0.18347 v 0.0334 q 0,1.01741 -0.45033,1.43438 -0.43365,0.4003 -1.06745,0.4003 -0.41697,0 -0.68384,-0.20015 0.21683,-0.26686 0.28355,-0.38362 0.0667,-0.11675 0.0667,-0.3169 0,-0.28354 -0.11675,-0.48368 -0.10007,-0.21683 -0.10007,-0.33358 0,-0.10008 0.15011,-0.15011 l 2.90212,-0.50037 q 0.0667,-1.05077 0.36694,-1.75128 0.30022,-0.7172 0.81727,-1.13417 0.51704,-0.43365 1.21756,-0.61712 0.71719,-0.18347 1.60117,-0.18347 0.41697,0 0.81727,0.13344 0.40029,0.11675 0.71719,0.45033 0.3169,0.33357 0.51704,0.95069 0.20015,0.61712 0.20015,1.5845 v 4.43659 q 0,0.58376 0.10007,1.03409 0.11676,0.45033 0.55041,0.68383 z"
         id="path20302"
         style="font-size:16.6789px;line-height:1.25;font-family:'Ethiopia Jiret';-inkscape-font-specification:'Ethiopia Jiret';letter-spacing:0.396875px;fill:#00b5b9;fill-opacity:1;stroke-width:0.342207" />
      <path
         d="m 191.257,160.8552 q 0,-0.6338 -0.25018,-0.93402 -0.25018,-0.30022 -0.56708,-0.33358 l -0.66716,0.0334 q 0,1.36767 0.10008,1.98479 0.11675,0.60044 0.45033,0.60044 0.45033,0 0.68383,-0.26686 0.25018,-0.28354 0.25018,-1.08413 z m 1.56782,0 q 0,0.80059 -0.50037,1.21756 -0.48368,0.40029 -1.23423,0.40029 -0.36694,0 -0.83395,-0.05 -0.11675,-0.0167 -0.18347,-0.0167 -0.0667,-0.0167 -0.10007,-0.0167 -0.0667,0 -0.21683,0.0334 -0.13343,0.0167 -0.36693,0.05 -0.18347,0.0334 -0.3169,0.0334 -0.11675,0.0167 -0.18347,0.0334 -0.36694,-0.13343 -0.51705,-0.43365 -0.15011,-0.30022 -0.15011,-0.75055 v -2.10154 q 0,-0.45033 -0.0667,-0.83395 -0.05,-0.40029 -0.20015,-0.68383 -0.15011,-0.30022 -0.43365,-0.46701 -0.28354,-0.16679 -0.73387,-0.16679 l -0.58376,0.0334 -0.21683,3.10227 q 0.0167,0.81727 0.13343,1.2676 0.13343,0.45033 0.55041,0.68383 l -1.60118,0.28354 q -0.45033,-0.16678 -0.58376,-0.50036 -0.11675,-0.25019 -0.11675,-1.35099 l 0.18347,-3.25239 q -0.53373,0.0334 -1.00074,0.33358 -0.45033,0.30022 -0.80058,0.73387 -0.33358,0.43365 -0.53373,0.93402 -0.20015,0.48369 -0.20015,0.88398 0,0.2335 0.0167,0.53373 0.0167,0.28354 0.0667,0.56708 0.0667,0.28354 0.16679,0.53372 0.10007,0.23351 0.26686,0.35026 l -1.63453,0.2335 q -0.35026,-0.13343 -0.51705,-0.43365 -0.15011,-0.3169 -0.15011,-0.88398 0,-0.76723 0.23351,-1.5011 0.25018,-0.75055 0.7839,-1.28428 0.45033,-0.467 1.25092,-0.7839 0.81727,-0.3169 2.06819,-0.50037 l 0.2335,-2.41844 q 0,-0.51705 -0.0834,-0.80059 -0.0834,-0.28354 -0.4003,-0.53372 l 1.51778,-0.38362 q 0.43365,0.0667 0.53373,0.4003 0.10007,0.31689 0.10007,1.11748 l -0.25018,2.4518 q 0.16679,-0.05 0.40029,-0.0834 0.25018,-0.0334 0.48369,-0.05 0.25018,-0.0334 0.46701,-0.05 0.2335,-0.0167 0.38361,-0.0167 0.51705,0 0.8673,0.20015 0.35026,0.20015 0.55041,0.5504 0.21682,0.35026 0.30022,0.85063 0.10007,0.48369 0.10007,1.08413 0.35026,-0.05 0.71719,-0.10008 0.38362,-0.05 0.7172,-0.05 0.76723,0 1.1842,0.40029 0.43365,0.38361 0.43365,1.20088 z"
         id="path20304"
         style="font-size:16.6789px;line-height:1.25;font-family:'Ethiopia Jiret';-inkscape-font-specification:'Ethiopia Jiret';letter-spacing:0.396875px;fill:#00b5b9;fill-opacity:1;stroke-width:0.342207" />
      <path
         d="m 202.75682,160.12133 q -0.51704,0.26686 -1.26759,0.26686 -0.48369,-0.0667 -0.80059,-0.41697 -0.3169,-0.36694 -0.3169,-0.93402 v -0.21683 l -0.58376,0.0667 q -0.25019,0.0834 -0.36694,0.28354 -0.11675,0.18347 -0.18347,0.50037 -0.05,0.30022 -0.0667,0.73387 -0.0167,0.43365 -0.0667,0.98406 l -0.0334,0.33357 -2.38509,0.73388 q -0.10007,0.0334 -0.33358,0.0167 -0.21682,0 -0.38361,0.0334 -0.38361,0 -0.75055,-0.10007 -0.35026,-0.10007 -0.6338,-0.33358 -0.26686,-0.25018 -0.45033,-0.65048 -0.16679,-0.41697 -0.16679,-1.03409 0,-0.53372 0.45033,-1.1842 0.46701,-0.66716 1.06745,-1.36767 l 2.25165,-2.51851 q 0.35026,-0.38362 0.4003,-0.73388 0.0667,-0.35025 0.0667,-0.7839 0,-0.28355 -0.40029,-0.51705 l 1.78464,-0.45033 q 0.18347,0 0.26686,0.25018 0.0834,0.23351 0.0834,0.51705 v 0.0834 q 0,0.80059 -0.41697,1.55114 -0.4003,0.75055 -0.98406,1.38435 l -2.1349,2.35173 q -0.10007,0.10007 -0.2335,0.26686 -0.13343,0.15011 -0.26687,0.33358 -0.11675,0.18346 -0.21682,0.38361 -0.0834,0.20015 -0.0834,0.36694 0,0.33357 0.0334,0.66715 0.05,0.3169 0.16679,0.58376 0.13343,0.25019 0.36694,0.41698 0.2335,0.16678 0.61712,0.16678 l 0.68383,-0.25018 q 0.0167,-0.65048 0.0667,-1.1842 0.0667,-0.5504 0.28354,-0.96738 0.2335,-0.41697 0.68383,-0.70051 0.45033,-0.28354 1.2676,-0.41697 l 2.41844,-0.23351 q 0.15011,0.10008 0.15011,0.23351 0,0.13343 -0.0834,0.2335 -0.0834,0.10008 -0.10007,0.43365 0,0.16679 0.13343,0.33358 0.13343,0.15011 0.46701,0.48369 z"
         id="path20306"
         style="font-size:16.6789px;line-height:1.25;font-family:'Ethiopia Jiret';-inkscape-font-specification:'Ethiopia Jiret';letter-spacing:0.396875px;fill:#00b5b9;fill-opacity:1;stroke-width:0.342207" />
      <path
         d="m 212.65723,162.50641 -1.48442,0.25019 q -0.3169,0 -0.60044,-0.13344 -0.28354,-0.13343 -0.35026,-0.58376 l -2.43512,0.43365 q -0.43365,-0.16678 -0.5504,-0.45033 -0.11676,-0.28354 -0.13343,-0.88398 l 0.16678,-3.08559 q -0.35025,0.11675 -0.56708,0.16678 -0.21682,0.05 -0.58376,0.11676 -0.85062,0 -1.45106,-0.41698 -0.58377,-0.43365 -0.58377,-1.4177 0,-0.11675 0,-0.23351 0.0167,-0.11675 0.0334,-0.2335 0.0834,-0.46701 0.25019,-0.9507 0.18346,-0.48369 0.58376,-0.88398 0.40029,-0.41697 1.08413,-0.70051 0.68383,-0.30022 1.76796,-0.38362 l 1.38435,-0.10007 0.0334,0.18347 q 0.36693,-0.11676 0.76723,-0.20015 0.40029,-0.0834 0.75055,-0.0834 0.11675,0 0.38361,0.10008 0.26686,0.10007 0.53373,0.33358 0.28354,0.2335 0.48368,0.65047 0.20015,0.4003 0.20015,1.00074 v 0.30022 q 0,0.65047 -0.18347,1.11748 -0.18347,0.46701 -0.60044,0.76723 -0.41697,0.30022 -1.06745,0.46701 -0.65047,0.16679 -1.58449,0.23351 l -0.10008,2.95216 q 0.0167,0.45033 0.0667,0.76723 0.0667,0.3169 0.25018,0.36694 l 1.05077,-0.18347 v -0.0334 q 0,-0.28354 0.20015,-0.53372 0.21683,-0.26687 0.51705,-0.3169 l 1.31763,-0.21683 q -0.0834,0.15011 -0.13343,0.38362 -0.0334,0.2335 -0.0334,0.38361 0.0167,0.38362 0.18347,0.66716 0.16679,0.26686 0.43365,0.38361 z m -5.05371,-8.50624 q 0,-0.26686 -0.18347,-0.40029 -0.18346,-0.15011 -0.45033,-0.15011 -0.18346,0 -0.38361,0.13343 -0.20015,0.11675 -0.36694,0.41697 -0.16678,0.30022 -0.28354,0.80059 -0.11675,0.48369 -0.11675,1.23424 0,0.56708 0.0167,0.9507 0.0334,0.36693 0.10007,0.60044 0.0834,0.21682 0.23351,0.3169 0.15011,0.10007 0.40029,0.10007 0.10007,0 0.21683,-0.0167 0.13343,-0.0334 0.2335,-0.0834 0.11675,-0.05 0.20015,-0.13344 0.0834,-0.0834 0.0834,-0.20014 z m 3.0022,0.66716 q 0,-0.70051 -0.33357,-1.03409 -0.33358,-0.33358 -0.65048,-0.33358 -0.18347,0 -0.3169,0.11675 -0.13343,0.11675 -0.15011,0.30022 l -0.18347,3.65268 q 0,0.0334 -0.0167,0.05 0,0 0,0.0167 0,0.10007 0.0667,0.15011 0.0834,0.0334 0.16679,0.0334 l 0.38361,-0.0167 q 0.61712,-0.11676 0.81727,-0.60045 0.20015,-0.48368 0.21682,-1.45106 z"
         id="path20308"
         style="font-size:16.6789px;line-height:1.25;font-family:'Ethiopia Jiret';-inkscape-font-specification:'Ethiopia Jiret';letter-spacing:0.396875px;fill:#00b5b9;fill-opacity:1;stroke-width:0.342207" />
      <path
         d="m 229.19296,155.00091 q 0,-0.80059 -0.25019,-1.25092 -0.25018,-0.46701 -0.63379,-0.46701 -0.33358,0 -0.56709,0.51705 -0.2335,0.50036 -0.2335,1.818 0,0.75055 0.21682,1.11748 0.23351,0.36694 0.55041,0.4003 0.18347,-0.0167 0.35025,-0.18347 0.16679,-0.18347 0.28355,-0.46701 0.13343,-0.30022 0.20014,-0.66716 0.0834,-0.38361 0.0834,-0.81726 z m -5.98773,-0.75055 q 0,-0.33358 -0.15011,-0.50037 -0.15011,-0.16679 -0.30022,-0.16679 h -0.05 q -0.23351,0.0334 -0.46701,0.30022 -0.21683,0.26686 -0.4003,0.68384 -0.18347,0.41697 -0.30022,0.95069 -0.10007,0.53373 -0.10007,1.10081 0,0.2335 0.05,0.46701 0.0667,0.2335 0.18346,0.43365 0.11676,0.20015 0.26687,0.33358 0.16679,0.11675 0.36693,0.11675 0.3169,-0.0667 0.46701,-0.10007 0.16679,-0.05 0.18347,-0.25019 z m 7.63894,0.8673 q 0,1.05077 -0.51705,1.63453 -0.50036,0.58376 -1.61785,0.58376 -0.0334,-0.0167 -0.21683,-0.0167 h -0.21682 q -0.0834,0 -0.35026,0.0334 -0.25018,0.0334 -0.51704,0.0834 -0.25019,0.05 -0.45034,0.0834 -0.20014,0.0334 -0.16678,0.0334 -0.38362,0 -0.68384,-0.23351 -0.28354,-0.25018 -0.28354,-0.75055 l 0.15011,-2.40176 q 0,-0.25018 -0.11675,-0.50037 -0.10008,-0.25018 -0.4003,-0.25018 h -0.0333 q -0.23351,0.0167 -0.4003,0.26686 -0.16679,0.23351 -0.20014,0.85063 l -0.18347,3.08559 q 0,0.3169 -0.20015,0.60044 -0.18347,0.28355 -0.46701,0.56709 -0.28354,0.26686 -0.61712,0.5504 -0.33358,0.26686 -0.6338,0.5504 -0.28354,0.26687 -0.48368,0.56709 -0.20015,0.28354 -0.21683,0.60044 0.0167,0.30022 0.10007,0.58376 0.0834,0.26686 0.36694,0.30022 l -1.71793,0.56708 q -0.21682,-0.0334 -0.38361,-0.25018 -0.16679,-0.21683 -0.20015,-0.55041 0.0167,-0.61711 0.3169,-1.08412 0.30022,-0.48369 0.71719,-0.90066 0.43365,-0.41698 0.88399,-0.80059 0.467,-0.4003 0.80058,-0.85063 l -1.71792,0.35026 q -0.45033,0 -0.73388,-0.13343 -0.28354,-0.13343 -0.45033,-0.35026 -0.16679,-0.2335 -0.2335,-0.51704 -0.0667,-0.28354 -0.0667,-0.58376 0,-0.50037 0.10008,-1.10081 0.10007,-0.60044 0.46701,-1.11749 0.36693,-0.53372 1.08412,-0.90066 0.7172,-0.36693 1.96811,-0.41697 0.80059,-0.10007 1.45107,-0.11675 0.66715,-0.0167 1.36767,-0.0167 0.0667,0 0.2335,0 0.18347,-0.0167 0.38362,-0.0167 0.21682,0 0.41697,0 0.21683,-0.0167 0.38362,-0.0167 0.28354,0 0.30022,0.0167 0.33357,-0.05 0.61711,-0.0667 0.28355,-0.0334 0.7172,-0.0334 0.41697,0 0.73387,0.0834 0.3169,0.0834 0.51704,0.3169 0.20015,0.2335 0.30023,0.6338 0.10007,0.40029 0.10007,1.03409 z"
         id="path20310"
         style="font-size:16.6789px;line-height:1.25;font-family:'Ethiopia Jiret';-inkscape-font-specification:'Ethiopia Jiret';letter-spacing:0.396875px;fill:#00b5b9;fill-opacity:1;stroke-width:0.342207" />
      <path
         d="m 239.74725,162.18951 q -0.41697,0.11676 -0.70051,0.18347 -0.28354,0.0667 -0.66716,0.11675 l -0.18346,0.0167 q -0.28355,0 -0.56709,-0.11675 -0.26686,-0.13343 -0.35025,-0.5504 l -2.96885,0.65047 q -0.53372,-0.0167 -0.91734,-0.11675 -0.38361,-0.10007 -0.65047,-0.36694 -0.25019,-0.28354 -0.38362,-0.76722 -0.11675,-0.48369 -0.11675,-1.28428 v -0.30022 q 0.0167,-1.70125 0.16679,-2.91881 0.15011,-1.23424 0.66715,-2.03482 0.51705,-0.80059 1.51778,-1.18421 1.01742,-0.38361 2.7687,-0.38361 h 1.65121 q 0.18347,0.13343 0.18347,0.26686 0,0.13343 -0.0834,0.3169 -0.0667,0.18347 -0.0667,0.41697 0,0.10008 0.0167,0.16679 0.0167,0.0667 0.0667,0.15011 0.05,0.0667 0.15011,0.15011 0.11676,0.0834 0.3169,0.23351 -0.71719,0.28354 -1.21756,0.28354 -0.75055,-0.13343 -1.06745,-0.51705 -0.31689,-0.40029 -0.31689,-1.00073 v -0.13343 q -0.58377,0.05 -1.13417,0.2335 -0.53372,0.18347 -0.9507,0.80059 -0.41697,0.61712 -0.68383,1.83468 -0.25019,1.21756 -0.25019,3.3191 v 0.20015 q 0,0.35025 0.0834,0.73387 0.10007,0.36693 0.28354,0.66715 0.20015,0.30022 0.48369,0.50037 0.30022,0.20015 0.70051,0.20015 l 1.68457,-0.38362 v -0.0334 q 0,-0.18347 0.16679,-0.46701 0.16679,-0.28354 0.50037,-0.38362 0.2335,-0.0834 0.50036,-0.13343 0.26687,-0.0667 0.80059,-0.15011 -0.0667,0.13343 -0.10007,0.3169 -0.0167,0.18347 -0.0167,0.33358 v 0.10007 q 0.0667,0.80059 0.68383,1.03409 z"
         style="font-size:16.6789px;line-height:1.25;font-family:'Ethiopia Jiret';-inkscape-font-specification:'Ethiopia Jiret';letter-spacing:0.661458px;fill:#00b5b9;fill-opacity:1;stroke-width:0.342207"
         id="path20312" />
      <path
         d="m 249.75094,157.71957 q -0.0834,-0.70052 -0.26686,-0.9507 -0.18347,-0.26686 -0.6338,-0.26686 -0.0834,0 -0.18346,0.0167 -0.10008,0 -0.21683,0.0167 -0.0334,0.33357 -0.05,0.63379 -0.0167,0.30022 -0.0167,0.55041 0,0.60044 0.11676,0.90066 0.13343,0.30022 0.45033,0.30022 h 0.0167 q 0.31689,-0.0167 0.5504,-0.26686 0.2335,-0.26687 0.2335,-0.93402 z m 5.20382,3.18567 q -0.0834,-0.73387 -0.28354,-0.98406 -0.20015,-0.25018 -0.73387,-0.25018 h -0.25019 q -0.10007,0 -0.11675,0.0167 -0.0334,0.28354 -0.05,0.5504 0,0.25018 0,0.48369 0,0.66716 0.15011,1.03409 0.15011,0.35026 0.50036,0.35026 0.3169,-0.0334 0.55041,-0.28354 0.2335,-0.25019 0.2335,-0.91734 z m -10.39095,-3.25239 q -0.0834,-0.75055 -0.28354,-1.01741 -0.20015,-0.28354 -0.7172,-0.28354 h -0.26686 q -0.10007,0 -0.11675,0.0167 -0.0667,0.2335 -0.10008,0.50036 -0.0167,0.26687 -0.0167,0.50037 0,0.61712 0.18346,1.08413 0.20015,0.46701 0.53373,0.46701 0.3169,0 0.5504,-0.30022 0.23351,-0.30022 0.23351,-0.96738 z m 11.72526,3.03556 q 0,0.28354 -0.0667,0.58376 -0.0667,0.28354 -0.21683,0.51705 -0.15011,0.21682 -0.40029,0.36693 -0.25019,0.13344 -0.61712,0.13344 -0.0834,0.0167 -0.15011,0.0333 -0.0667,0 -0.13343,0 h -0.20015 q -0.13343,0 -0.21683,0 -0.0667,-0.0167 -0.10007,-0.0167 -0.28354,0 -0.75055,0.0667 -0.45033,0.0667 -0.81727,0.0667 -0.26686,-0.0834 -0.41697,-0.28355 -0.15011,-0.20014 -0.21682,-0.45033 -0.0667,-0.26686 -0.0834,-0.56708 -0.0167,-0.30022 -0.0167,-0.58376 V 156.035 q 0,-1.15085 -0.70051,-1.86804 -0.68384,-0.71719 -1.98479,-0.71719 h -0.28354 q -0.0834,0 -0.15011,0.0167 -0.0667,0 -0.15011,0.0167 l -0.15011,2.78537 q 0.13343,0 0.2335,-0.0167 0.11676,-0.0167 0.25019,-0.0334 0.13343,-0.0167 0.3169,-0.0334 0.18346,-0.0334 0.45033,-0.05 0.61712,0 0.98405,0.36694 0.38362,0.35025 0.38362,1.00073 0,0.28354 -0.0667,0.58376 -0.0667,0.28354 -0.21683,0.51705 -0.15011,0.21682 -0.40029,0.36694 -0.25018,0.13343 -0.61712,0.13343 -0.0834,0.0167 -0.15011,0.0334 -0.0667,0 -0.13343,0 -0.28354,0 -0.38361,0 -0.10008,-0.0167 -0.13344,-0.0167 -0.28354,0 -0.75055,0.0667 -0.45033,0.0667 -0.81726,0.0667 -0.38362,-0.16679 -0.55041,-0.41698 -0.16678,-0.26686 -0.16678,-0.80058 v -0.20015 q 0,-0.11675 0.0167,-0.36694 0.0167,-0.26686 0.0334,-0.76723 0.0334,-0.50036 0.0834,-1.26759 0.05,-0.78391 0.13343,-1.96811 -0.71719,0.10007 -1.38435,0.46701 -0.66716,0.36693 -1.1842,0.80058 -0.51705,0.43366 -0.83395,0.85063 -0.30022,0.41697 -0.30022,0.61712 0.15011,-0.0334 0.4003,-0.0834 0.26686,-0.0667 0.8673,-0.0834 0.56708,0 0.96737,0.35026 0.4003,0.33357 0.4003,1.03409 0,0.28354 -0.0667,0.58376 -0.0667,0.28354 -0.21682,0.51704 -0.15011,0.23351 -0.4003,0.38362 -0.25018,0.13343 -0.61712,0.13343 -0.16678,0.0167 -0.30022,0.0334 -0.13343,0 -0.21682,0 -0.13343,0 -0.20015,0 -0.05,-0.0167 -0.0834,-0.0167 -0.18347,0 -0.46701,0.0334 -0.28354,0.0334 -0.56708,0.0334 -0.36694,0 -0.56709,-0.0667 -0.30022,-0.0667 -0.50036,-0.41697 -0.18347,-0.36694 -0.18347,-0.86731 0,-0.26686 0.0167,-0.58376 0.0167,-0.3169 0.13343,-0.56708 0.20014,-0.75055 0.68383,-1.30095 0.48369,-0.55041 1.11749,-0.91734 0.6338,-0.38362 1.36767,-0.61712 0.73387,-0.23351 1.43438,-0.35026 0.7172,-0.13343 1.33432,-0.18347 0.61712,-0.05 1.03409,-0.0667 l 0.05,0.13343 q 0.36694,-0.0667 0.61712,-0.10008 0.25019,-0.05 0.43366,-0.0667 0.18346,-0.0167 0.33357,-0.0167 0.15011,-0.0167 0.33358,-0.0167 0.68384,0 1.2676,0.15011 0.58376,0.15011 1.00073,0.45033 0.43365,0.30022 0.66716,0.76723 0.2335,0.45033 0.2335,1.06745 v 3.91954 q 0.0167,-0.0167 0.3169,-0.0334 0.3169,-0.0333 1.06745,-0.0667 h 0.11675 q 0.51705,0 0.86731,0.33358 0.35025,0.3169 0.35025,0.98405 z"
         style="font-size:16.6789px;line-height:1.25;font-family:'Ethiopia Jiret';-inkscape-font-specification:'Ethiopia Jiret';letter-spacing:0.661458px;fill:#00b5b9;fill-opacity:1;stroke-width:0.342207"
         id="path20314" />
      <path
         d="m 267.90708,159.70436 q -0.26686,-0.10008 -0.41697,-0.23351 -0.15011,-0.13343 -0.21683,-0.33358 -0.0667,-0.21682 -0.0834,-0.51704 -0.0167,-0.3169 -0.0167,-0.78391 v -3.18567 q 0,-0.36694 -0.0334,-0.65048 -0.0167,-0.28354 -0.13343,-0.46701 -0.11675,-0.18346 -0.35026,-0.28354 -0.2335,-0.10007 -0.65047,-0.10007 -0.75055,0 -1.21756,0.85062 -0.45033,0.85063 -0.45033,2.36841 v 3.83614 q 0,0.70052 0.10007,1.23424 0.11675,0.51705 0.56708,0.73387 l -1.60117,0.28355 q -0.23351,-0.10008 -0.38362,-0.23351 -0.13343,-0.13343 -0.21682,-0.33358 -0.0834,-0.21682 -0.11675,-0.53372 -0.0167,-0.3169 -0.0167,-0.78391 v -3.36914 q 0,-1.20088 0.25018,-2.01815 0.26686,-0.83394 0.76723,-1.33431 0.50037,-0.50036 1.23424,-0.71719 0.73387,-0.2335 1.68457,-0.2335 0.41697,0 0.81726,0.13343 0.4003,0.11675 0.7172,0.45033 0.3169,0.33358 0.51704,0.95069 0.20015,0.61712 0.20015,1.5845 v 1.68457 q 0,0.58376 0.10007,1.03409 0.11675,0.45033 0.55041,0.68384 z"
         style="font-size:16.6789px;line-height:1.25;font-family:'Ethiopia Jiret';-inkscape-font-specification:'Ethiopia Jiret';letter-spacing:0.661458px;fill:#00b5b9;fill-opacity:1;stroke-width:0.342207"
         id="path20316" />
      <path
         d="m 278.67595,162.18951 q -0.41698,0.11676 -0.70052,0.18347 -0.28354,0.0667 -0.66715,0.11675 l -0.18347,0.0167 q -0.28354,0 -0.56708,-0.11675 -0.26687,-0.13343 -0.35026,-0.5504 l -2.96884,0.65047 q -0.53373,-0.0167 -0.91734,-0.11675 -0.38362,-0.10007 -0.65048,-0.36694 -0.25019,-0.28354 -0.38362,-0.76722 -0.11675,-0.48369 -0.11675,-1.28428 v -0.30022 q 0.0167,-1.70125 0.16679,-2.91881 0.15011,-1.23424 0.66716,-2.03482 0.51704,-0.80059 1.51778,-1.18421 1.01741,-0.38361 2.76869,-0.38361 h 1.65121 q 0.18347,0.13343 0.18347,0.26686 0,0.13343 -0.0834,0.3169 -0.0667,0.18347 -0.0667,0.41697 0,0.10008 0.0167,0.16679 0.0167,0.0667 0.0667,0.15011 0.05,0.0667 0.15011,0.15011 0.11675,0.0834 0.3169,0.23351 -0.7172,0.28354 -1.21756,0.28354 -0.75055,-0.13343 -1.06745,-0.51705 -0.3169,-0.40029 -0.3169,-1.00073 v -0.13343 q -0.58376,0.05 -1.13417,0.2335 -0.53372,0.18347 -0.95069,0.80059 -0.41698,0.61712 -0.68384,1.83468 -0.25018,1.21756 -0.25018,3.3191 v 0.20015 q 0,0.35025 0.0834,0.73387 0.10007,0.36693 0.28354,0.66715 0.20015,0.30022 0.48369,0.50037 0.30022,0.20015 0.70051,0.20015 l 1.68457,-0.38362 v -0.0334 q 0,-0.18347 0.16679,-0.46701 0.16679,-0.28354 0.50037,-0.38362 0.2335,-0.0834 0.50037,-0.13343 0.26686,-0.0667 0.80058,-0.15011 -0.0667,0.13343 -0.10007,0.3169 -0.0167,0.18347 -0.0167,0.33358 v 0.10007 q 0.0667,0.80059 0.68384,1.03409 z"
         style="font-size:16.6789px;line-height:1.25;font-family:'Ethiopia Jiret';-inkscape-font-specification:'Ethiopia Jiret';letter-spacing:0.661458px;fill:#00b5b9;fill-opacity:1;stroke-width:0.342207"
         id="path20318" />
      <path
         d="m 290.61796,155.81817 q -0.21683,0.18347 -0.45033,0.25019 -0.23351,0.05 -0.56709,0.05 -0.58376,-0.0834 -0.93401,-0.46701 -0.35026,-0.40029 -0.43366,-0.96737 l -0.75055,0.18347 q 0,0.5504 -0.11675,1.01741 -0.11675,0.45033 -0.48369,0.85062 -0.36693,0.38362 -1.03409,0.70052 -0.65048,0.30022 -1.7346,0.5504 0.38361,0.85062 0.68383,1.33431 0.30022,0.48369 0.58376,0.78391 h 2.75202 q 0.20015,0 0.20015,0.18347 0,0.15011 -0.10008,0.3169 -0.0834,0.16679 -0.0834,0.41697 0,-0.0167 0.0167,0.10007 0.0334,0.11676 0.10007,0.30022 0.0667,0.16679 0.20015,0.36694 0.13343,0.20015 0.35026,0.35026 -0.61712,0.3169 -1.36767,0.3169 -0.60044,0 -1.06745,-0.58377 -0.46701,-0.60044 -0.53373,-1.53446 h -2.85209 q -0.05,1.05078 -0.48369,1.66789 -0.41697,0.60045 -1.13416,0.61712 -0.7172,0 -1.1842,-0.31689 0.31689,-0.16679 0.50036,-0.36694 0.20015,-0.20015 0.20015,-0.70051 -0.0167,-0.20015 -0.10007,-0.48369 -0.0667,-0.28354 -0.0667,-0.36694 0,-0.0667 0.0167,-0.16679 0.0334,-0.10007 0.15011,-0.11675 h 2.41844 q -0.15011,-0.2335 -0.40029,-0.68383 -0.23351,-0.45033 -0.46701,-0.96738 -0.21683,-0.53373 -0.38362,-1.08413 -0.15011,-0.56708 -0.15011,-1.01741 0,-1.35099 0.53373,-2.16826 0.53372,-0.83394 1.70124,-1.10081 0.41698,-0.05 0.66716,-0.0834 0.25018,-0.05 0.38361,-0.0667 0.15012,-0.0333 0.20015,-0.05 0.05,-0.0167 0.05,-0.0167 1.05077,0 1.53446,0.3169 0.50036,0.30022 0.50036,1.16752 v 0.21683 l 2.43512,-0.55041 q 0.10008,0 0.10008,0.11675 0,0.11676 -0.0667,0.30022 -0.05,0.16679 -0.05,0.30022 0,0.0834 0.0334,0.25019 0.05,0.16679 0.13343,0.35025 0.0834,0.16679 0.21683,0.3169 0.13343,0.13344 0.33358,0.16679 z m -4.80353,-1.33431 q 0,-0.6338 -0.13343,-0.96738 -0.13343,-0.35025 -0.70051,-0.35025 -0.45033,0 -0.71719,0.25018 -0.25019,0.23351 -0.38362,0.58376 -0.13343,0.35026 -0.18347,0.75055 -0.0333,0.38362 -0.0333,0.70052 0,0.90066 0.15011,1.45106 0.15011,0.53373 0.2335,0.8673 0.5504,-0.11675 0.90066,-0.28354 0.35026,-0.18346 0.53373,-0.41697 0.18346,-0.2335 0.25018,-0.53372 0.0667,-0.3169 0.0667,-0.73388 0,-0.28354 0,-0.60044 0,-0.33357 0.0167,-0.71719 z"
         style="font-size:16.6789px;line-height:1.25;font-family:'Ethiopia Jiret';-inkscape-font-specification:'Ethiopia Jiret';letter-spacing:0.661458px;fill:#00b5b9;fill-opacity:1;stroke-width:0.342207"
         id="path20320" />
    </g>
    <path
       style="color:#000000;opacity:1;fill:#00b5b9;fill-opacity:1;stroke-width:0.999995;stroke-linecap:round;-inkscape-stroke:none"
       d="m 80.654088,136.53188 -0.110433,0.0591 -7.779174,4.35222 h 61.144449 l 7.77537,-4.30273 z m 0.247496,0.95384 57.100646,0.1009 -4.33891,2.40268 H 76.4256 Z"
       id="path2288" />
    <path
       id="rect20381"
       style="font-size:16.6789px;line-height:1.25;font-family:'Ethiopia Jiret';-inkscape-font-specification:'Ethiopia Jiret';letter-spacing:0.396875px;opacity:1;fill:#6c55a4;fill-opacity:1;stroke-width:0.0999995;stroke-linecap:round"
       d="m 112.85485,99.717312 -3.21582,1.087548 c -0.945,0.9643 -1.88362,1.99809 -2.48137,2.71611 a 0.42580919,0.42580919 0 0 1 -0.59944,0.0549 0.42580919,0.42580919 0 0 1 -0.0554,-0.59944 c 0.37109,-0.44575 0.86165,-1.00119 1.39885,-1.58373 l -1.74592,0.59038 c -0.51097,1.02823 -1.33388,2.83751 -1.33388,4.39353 0,0.98856 0.28232,1.76422 0.73091,2.6063 0.4486,0.84208 1.06825,1.73615 1.68498,2.87681 0.51113,0.94528 0.33793,1.86104 -0.0514,2.48439 -0.38931,0.62336 -0.929,1.00113 -1.28904,1.1747 -0.67671,0.32621 -1.32335,0.61322 -2.70151,1.10821 h -0.002 -0.002 c -1.55094,0.54315 -2.44142,2.22291 -1.96707,3.76589 0.42657,1.38757 1.8726,2.1194 3.7412,1.64669 1.97523,-0.49968 2.43432,-0.81223 3.8213,-1.76104 1.2914,-0.88341 2.00739,-1.8106 2.57205,-2.64609 a 0.45160037,0.45160037 0 0 1 0.62613,-0.12191 0.45160037,0.45160037 0 0 1 0.12191,0.62614 c -0.59045,0.87367 -1.40192,1.92291 -2.81031,2.88637 -1.39228,0.95242 -2.07396,1.37734 -4.11045,1.89252 -2.21311,0.55985 -4.25225,-0.39113 -4.82624,-2.25822 -0.620906,-2.01972 0.53732,-4.18383 2.53427,-4.88316 1.3546,-0.4867 1.95028,-0.75024 2.61034,-1.06842 0.18164,-0.0875 0.65096,-0.41723 0.91577,-0.84123 0.26478,-0.42401 0.3907,-0.89599 0.0227,-1.57667 -0.58919,-1.08973 -1.20376,-1.96946 -1.689,-2.88033 -0.48524,-0.91088 -0.83569,-1.86561 -0.83569,-3.03095 0,-1.4372 0.54226,-2.91264 1.03113,-3.98602 l -0.91226,0.30879 c -0.0502,0.14733 -0.50615,1.51611 -0.73393,3.44501 a 0.43870499,0.43870499 0 0 1 -0.4871,0.38435 0.43870499,0.43870499 0 0 1 -0.38284,-0.48711 c 0.15142,-1.28234 0.40607,-2.34624 0.58634,-2.9982 l -0.56116,0.1899 c -0.39788,1.72022 -0.41557,2.53024 -0.41557,2.53024 a 0.36133202,0.36133202 0 0 1 -0.36924,0.35211 0.36133202,0.36133202 0 0 1 -0.35412,-0.36923 c 0,0 0.0209,-0.75238 0.3375,-2.24211 l -0.4856,0.16422 c -0.10011,0.62462 -0.13131,1.16649 -0.19091,1.84365 a 0.36133202,0.36133202 0 0 1 -0.3919,0.32743 0.36133202,0.36133202 0 0 1 -0.32742,-0.39039 c 0.0471,-0.5354 0.0784,-1.0103 0.14406,-1.52178 l -9.260068,3.1322 c -3.997565,1.3172 -6.439939,4.85208 -5.045364,9.60664 l 6.547487,22.32331 h 31.565255 l -7.6023,-26.28565 c -0.61059,0.45694 -0.98375,0.98118 -1.28401,1.58523 -0.46904,0.94361 -0.72612,2.10814 -1.27947,3.4022 -0.61592,1.44028 -1.908,3.53189 -4.57136,5.22973 -2.16099,1.43763 -4.37024,1.95729 -6.22913,1.74593 -1.85956,-0.21145 -3.386126,-1.1723 -4.066616,-2.67128 a 0.42580927,0.42580927 0 0 1 0.21107,-0.56317 0.42580927,0.42580927 0 0 1 0.56367,0.21106 c 0.539516,1.18846 1.760806,1.99102 3.388596,2.17611 1.62778,0.18508 3.64514,-0.26573 5.66243,-1.6084 l 0.004,-0.002 0.004,-0.004 c 2.50639,-1.59579 3.68643,-3.52755 4.25148,-4.84891 0.51628,-1.20735 0.76403,-2.37053 1.29862,-3.44601 0.38159,-0.76767 0.93042,-1.47656 1.79932,-2.06228 l -0.10326,-0.35664 c -0.47087,0.32595 -0.93363,0.70716 -1.35554,1.14498 a 0.43870499,0.43870499 0 0 1 -0.62059,0.0116 0.43870499,0.43870499 0 0 1 -0.0116,-0.62059 c 0.54028,-0.56065 1.13364,-1.03299 1.73183,-1.42202 l -0.14357,-0.49568 c -0.3858,0.21078 -0.79918,0.47042 -1.14448,0.76567 a 0.43870499,0.43870499 0 0 1 -0.61858,-0.0474 0.43870499,0.43870499 0 0 1 0.0474,-0.61908 c 0.46358,-0.39638 0.99674,-0.72067 1.46485,-0.96665 l -0.20501,-0.70825 c -0.40754,0.21828 -0.85271,0.49159 -1.22156,0.80698 a 0.43870499,0.43870499 0 0 1 -0.61908,-0.0499 0.43870499,0.43870499 0 0 1 0.0479,-0.61858 c 0.48894,-0.41806 1.05629,-0.75664 1.54193,-1.00645 l -0.19546,-0.67651 c -0.48325,0.23657 -1.08799,0.57562 -1.56357,0.98227 a 0.43870499,0.43870499 0 0 1 -0.61858,-0.0474 0.43870499,0.43870499 0 0 1 0.0494,-0.61909 c 0.61262,-0.52382 1.34084,-0.91909 1.88394,-1.1752 l -0.23625,-0.81654 c -0.5076,0.22872 -1.30662,0.63295 -1.90308,1.14296 a 0.43870499,0.43870499 0 0 1 -0.61859,-0.0499 0.43870499,0.43870499 0 0 1 0.0493,-0.61859 c 0.75527,-0.6458 1.68755,-1.09741 2.22548,-1.32834 l -0.15616,-0.5405 c -1.78381,0.90884 -2.59286,1.49264 -2.81132,1.81192 -0.12652,0.18487 -0.1205,0.23466 -0.0725,0.40903 0.0473,0.17164 0.19255,0.43765 0.36068,0.78531 0.89141,1.45461 1.73613,2.61893 2.12574,4.04849 0.39196,1.43818 0.27668,3.09801 -0.66644,5.42064 a 0.45160037,0.45160037 0 0 1 -0.58785,0.24935 0.45160037,0.45160037 0 0 1 -0.24985,-0.58837 c 0.89778,-2.21094 0.96982,-3.61392 0.63419,-4.84537 -0.33561,-1.23146 -1.12463,-2.33974 -2.04111,-3.83793 l -0.0131,-0.0191 -0.01,-0.0212 c -0.15467,-0.32084 -0.32681,-0.60349 -0.42263,-0.95155 -0.0958,-0.34805 -0.0568,-0.78936 0.19645,-1.15958 0.44929,-0.65664 1.37815,-1.23724 3.30095,-2.18871 l -0.21308,-0.73695 c -1.91508,0.96411 -3.24354,1.9999 -3.80417,2.8229 -0.43677,0.64115 -0.41685,0.98499 -0.18638,1.51371 0.23047,0.52873 0.75896,1.19103 1.34395,2.10156 v 0.002 c 0.79725,1.25206 1.14737,2.12828 1.29307,3.13169 0.17133,1.1798 -0.004,2.25274 -0.49919,3.53367 -0.47868,1.23824 -1.2691,2.36163 -1.95296,3.13974 l -0.002,0.002 c -1.23715,1.43655 -3.74163,2.5272 -5.61105,2.86372 -1.1077,0.20139 -2.18627,-0.52563 -2.39675,-1.63561 -0.21049,-1.10998 0.52338,-2.19154 1.63561,-2.39877 0.59852,-0.11159 2.90809,-0.64079 3.87419,-2.05068 0.33132,-0.4835 1.1502,-1.76316 0.97674,-2.67834 -0.23472,-1.2378 -0.49854,-1.34516 -0.94651,-2.07335 -0.68485,-1.11326 -1.21581,-2.00839 -1.53789,-2.85968 -0.32209,-0.85128 -0.42217,-1.67488 -0.2151,-2.54182 0.0678,-0.28441 0.12643,-0.52028 0.23021,-0.7959 a 0.42580919,0.42580919 0 0 1 0.54806,-0.24733 0.42580919,0.42580919 0 0 1 0.24935,0.54856 c -0.0858,0.22774 -0.133,0.41249 -0.19948,0.69112 -0.16637,0.69658 -0.0986,1.30196 0.18235,2.04464 0.281,0.74269 0.78726,1.60674 1.46787,2.71309 0.38796,0.63064 0.79919,1.00383 1.05682,2.3625 0.27627,1.45759 -0.79052,2.85074 -1.10971,3.31656 -1.2475,1.82053 -3.78167,2.28918 -4.42074,2.40833 -0.6597,0.12292 -1.07939,0.7425 -0.95407,1.4034 0.12533,0.6609 0.73926,1.07659 1.40491,0.95557 h 0.002 v -0.002 c 1.66709,-0.29977 4.13515,-1.43629 5.1194,-2.58161 l 0.002,-0.002 0.002,-0.002 c 0.62899,-0.71537 1.37483,-1.7846 1.80134,-2.88788 0.4636,-1.19903 0.6007,-2.07145 0.45084,-3.10348 -0.12888,-0.88757 -0.40625,-1.59705 -1.16866,-2.7947 -0.55726,-0.86738 -1.09944,-1.51859 -1.40692,-2.22397 -0.30748,-0.70539 -0.29279,-1.51517 0.26245,-2.33026 0.73139,-1.07367 2.20398,-2.16037 4.26759,-3.17702 l -0.18284,-0.63319 a 0.49028875,0.49028875 0 0 1 -9.8e-4,5e-4 c -1.28453,0.71398 -2.59518,1.46801 -3.56792,2.32673 -0.97149,0.85762 -1.58774,1.78067 -1.63511,2.90703 -0.0145,0.58185 0.45268,1.65543 1.0528,2.50757 0.76934,1.09241 1.37477,2.02717 1.65072,3.06117 0.27595,1.03402 0.18408,2.14316 -0.36017,3.43846 a 0.49033779,0.49033779 0 0 0 0,5e-4 0.49033779,0.49033779 0 0 0 0,5.1e-4 0.49033779,0.49033779 0 0 0 0,5e-4 0.49033779,0.49033779 0 0 0 0,5.1e-4 c -1.50949,3.55429 -4.59387,4.61131 -6.60642,4.81667 a 0.49028875,0.49028875 0 0 1 -0.53849,-0.43774 0.49028875,0.49028875 0 0 1 0.43774,-0.53849 c 1.78656,-0.18228 4.45394,-1.04345 5.80499,-4.22278 0.48548,-1.15542 0.53615,-1.97926 0.31584,-2.80476 -0.2203,-0.8255 -0.75079,-1.677 -1.50565,-2.74886 -0.66812,-0.94868 -1.25961,-2.06728 -1.23212,-3.10147 a 0.49033779,0.49033779 0 0 1 0,-0.008 c 0.0598,-1.46841 0.88236,-2.65016 1.96706,-3.60772 1.08471,-0.95756 2.44819,-1.72905 3.73919,-2.446614 a 0.49028875,0.49028875 0 0 1 0.21459,-0.05642 z m -13.080356,4.801048 a 0.32238723,0.32238723 0 0 1 0.276036,0.36369 l -0.0741,0.54655 a 0.32238723,0.32238723 0 0 1 -0.36369,0.27403 0.32238723,0.32238723 0 0 1 -0.27605,-0.3637 l 0.076,-0.54453 a 0.32238723,0.32238723 0 0 1 0.36168,-0.27604 z m -0.11636,1.70512 c 1.496736,0.0127 2.753096,0.40638 3.943196,1.2286 a 0.43864944,0.43864944 0 0 1 0.11031,0.60952 0.43864944,0.43864944 0 0 1 -0.60901,0.11234 c -1.13715,-0.78565 -2.23701,-1.10687 -3.724076,-1.06993 a 0.43864944,0.43864944 0 0 1 -0.45134,-0.42868 0.43864944,0.43864944 0 0 1 0.42868,-0.44932 c 0.10197,-0.003 0.20245,-0.003 0.30224,-0.003 z m -0.91377,1.21148 c 1.374336,0.10244 2.743066,0.30047 3.965856,0.97522 1.22279,0.67476 2.26724,1.83292 2.97604,3.72358 a 0.43870499,0.43870499 0 0 1 -0.2574,0.56568 0.43870499,0.43870499 0 0 1 -0.56519,-0.25689 c -0.65233,-1.74006 -1.53606,-2.68867 -2.57809,-3.26368 -1.04203,-0.575 -2.27393,-0.76866 -3.605696,-0.86793 a 0.43870499,0.43870499 0 0 1 -0.4055,-0.47048 0.43870499,0.43870499 0 0 1 0.46998,-0.4055 z m -0.70825,1.64871 c 0.92989,0.004 1.66816,-0.0284 2.623926,0.28209 a 0.40001805,0.40001805 0 0 1 0.25691,0.50423 0.40001805,0.40001805 0 0 1 -0.50474,0.25741 c -0.827256,-0.26875 -1.430056,-0.23991 -2.379616,-0.24381 a 0.40001805,0.40001805 0 0 1 -0.39795,-0.40198 0.40001805,0.40001805 0 0 1 0.40147,-0.39794 z m 3.744726,0.75408 a 0.43864944,0.43864944 0 0 1 0.15817,0.063 c 0.98927,0.64198 1.87937,1.52039 2.04867,2.68036 a 0.43864944,0.43864944 0 0 1 -0.37124,0.49718 0.43864944,0.43864944 0 0 1 -0.49668,-0.36924 c -0.11276,-0.77263 -0.77968,-1.50318 -1.65828,-2.07335 a 0.43864944,0.43864944 0 0 1 -0.12745,-0.60548 0.43864944,0.43864944 0 0 1 0.27605,-0.19042 0.43864944,0.43864944 0 0 1 0.17076,-0.002 z m -3.341236,0.7425 c 0.8361,0.002 1.598136,0.11078 2.264266,0.41305 0.88817,0.40305 1.56394,1.17836 1.89806,2.33983 a 0.43870451,0.43870451 0 0 1 -0.30073,0.54303 0.43870451,0.43870451 0 0 1 -0.54302,-0.30124 c -0.27996,-0.9732 -0.74562,-1.47657 -1.418,-1.78168 -0.672386,-0.30556 -1.592766,-0.38242 -2.701506,-0.30678 a 0.43870451,0.43870451 0 0 1 -0.46646,-0.40752 0.43870451,0.43870451 0 0 1 0.40702,-0.46796 c 0.29436,-0.0201 0.58167,-0.0314 0.86037,-0.0307 z m -0.82914,1.29207 c 0.69371,-9.7e-4 1.44079,0.1316 2.08595,0.44228 0.737316,0.35505 1.366086,1.00527 1.416486,1.91719 a 0.43864944,0.43864944 0 0 1 -0.41507,0.46293 0.43864944,0.43864944 0 0 1 -0.46041,-0.41306 c -0.0304,-0.55083 -0.364706,-0.90844 -0.921826,-1.17671 -0.55712,-0.26828 -1.31435,-0.38465 -1.94944,-0.34858 a 0.43864944,0.43864944 0 0 1 -0.46242,-0.41307 0.43864944,0.43864944 0 0 1 0.41306,-0.46242 c 0.0965,-0.006 0.19457,-0.009 0.29367,-0.009 z m 8.059176,1.13289 a 0.42580927,0.42580927 0 0 1 0.3783,0.28411 0.42580927,0.42580927 0 0 1 -0.26093,0.54301 c -1.19827,0.41909 -2.47631,0.8234 -3.54525,1.42002 -1.06895,0.59662 -1.91707,1.3622 -2.350906,2.53578 -0.42722,1.15572 -0.47527,1.79311 -0.34657,2.64105 a 0.42580927,0.42580927 0 0 1 -0.35815,0.4851 0.42580927,0.42580927 0 0 1 -0.48509,-0.35765 c -0.14502,-0.95539 -0.0686,-1.82298 0.38988,-3.06319 0.5188,-1.40336 1.560356,-2.32929 2.736256,-2.9856 1.1759,-0.65632 2.49867,-1.06641 3.67825,-1.47896 a 0.42580927,0.42580927 0 0 1 0.16421,-0.0237 z m -8.253616,0.14759 c 0.85583,0.008 1.53809,0.25341 1.93231,0.76315 0.42045,0.54372 0.41676,1.31155 0.0625,2.08847 a 0.38712278,0.38712278 0 0 1 -0.5118,0.19242 0.38712278,0.38712278 0 0 1 -0.19242,-0.51431 c 0.28108,-0.61648 0.23981,-1.02155 0.0302,-1.29256 -0.20961,-0.27103 -0.682,-0.48285 -1.47341,-0.46092 a 0.38712278,0.38712278 0 0 1 -0.39795,-0.37679 0.38712278,0.38712278 0 0 1 0.37679,-0.39795 h 5.1e-4 c 0.0586,-0.002 0.11622,-0.002 0.17328,-0.002 z m 18.819356,0.4725 a 0.38712278,0.38712278 0 0 1 0.15062,0.0181 v 5.1e-4 a 0.38712278,0.38712278 0 0 1 0.24532,0.48912 c -0.67651,2.05179 -1.56721,5.33161 -3.37701,7.30509 -1.46207,1.59429 -3.82646,3.36896 -5.55211,3.94875 -3.09179,1.03877 -6.22463,1.08579 -8.660636,-1.29862 l -0.004,-0.004 -0.004,-0.004 c -0.91146,-0.9426 -2.39426,-3.22835 -0.85482,-7.292 a 0.38712278,0.38712278 0 0 1 0.49869,-0.22466 0.38712278,0.38712278 0 0 1 0.22466,0.49869 c -1.44922,3.82548 -0.10481,5.65724 0.68559,6.47545 2.198766,2.14786 4.915886,2.10736 7.868756,1.11526 1.45877,-0.4901 3.85708,-2.24679 5.2257,-3.73918 1.60004,-1.74477 2.52622,-4.93762 3.2138,-7.02301 a 0.38712278,0.38712278 0 0 1 0.33901,-0.26597 z m -19.364396,0.61606 c 0.28005,0.0102 0.51309,0.0138 0.72739,0.0458 0.2143,0.032 0.4443,0.0985 0.60548,0.29669 0.16095,0.19816 0.1844,0.45119 0.15817,0.70673 -0.0262,0.25553 -0.10169,0.5497 -0.21912,0.93644 -0.0531,0.17486 -0.14486,0.36556 -0.26244,0.65687 -0.11758,0.29131 -0.25602,0.66238 -0.3788,1.10416 -0.24558,0.88358 -0.42816,2.04535 -0.24583,3.40069 a 0.36133202,0.36133202 0 0 1 -0.31029,0.40701 0.36133202,0.36133202 0 0 1 -0.40551,-0.31029 c -0.1981,-1.47264 -3.2e-4,-2.73865 0.26446,-3.69134 0.1324,-0.47635 0.28192,-0.87607 0.40551,-1.18226 0.12358,-0.30617 0.22551,-0.54088 0.24179,-0.5944 0.11186,-0.36857 0.17555,-0.63682 0.19242,-0.80143 0.0122,-0.11888 6.2e-4,-0.16308 -0.003,-0.1748 -0.009,-0.004 -0.047,-0.023 -0.1491,-0.0383 -0.13954,-0.0209 -0.36329,-0.0293 -0.6478,-0.0398 a 0.36133202,0.36133202 0 0 1 -0.34808,-0.37326 0.36133202,0.36133202 0 0 1 0.37477,-0.34858 z m 0.0836,1.12584 a 0.3094919,0.3094919 0 0 1 0.11636,0.0318 0.3094919,0.3094919 0 0 1 0.13701,0.41709 l -0.28561,0.56366 a 0.3094919,0.3094919 0 0 1 -0.41457,0.13501 0.3094919,0.3094919 0 0 1 -0.13752,-0.41507 l 0.28562,-0.56368 a 0.3094919,0.3094919 0 0 1 0.17933,-0.15415 0.3094919,0.3094919 0 0 1 0.11938,-0.0146 z m 18.042616,4.58042 a 0.38712268,0.38712268 0 0 1 0.14557,0.0418 0.38712268,0.38712268 0 0 1 0.16724,0.52338 c -1.57437,3.04309 -5.3312,5.71957 -8.25312,6.45983 a 0.38712268,0.38712268 0 0 1 -0.47048,-0.28159 0.38712268,0.38712268 0 0 1 0.28007,-0.47048 c 2.63096,-0.66654 6.33193,-3.31438 7.75443,-6.0639 a 0.38712268,0.38712268 0 0 1 0.22668,-0.19243 0.38712268,0.38712268 0 0 1 0.14961,-0.0166 z m -17.550476,2.85212 a 0.38712268,0.38712268 0 0 1 0.14961,0.0166 0.38712268,0.38712268 0 0 1 0.22668,0.1884 c 0.81125,1.55265 2.14531,2.62821 3.815256,3.21178 0.81707,0.2856 2.67605,0.53778 3.88225,0.26849 a 0.38712268,0.38712268 0 0 1 0.46242,0.29317 0.38712268,0.38712268 0 0 1 -0.29317,0.46293 c -1.44987,0.32369 -3.30384,0.0572 -4.30639,-0.29317 -1.829986,-0.6395 -3.339796,-1.84973 -4.245436,-3.58303 a 0.38712268,0.38712268 0 0 1 0.16371,-0.52388 0.38712268,0.38712268 0 0 1 0.14507,-0.0413 z m 12.332326,3.5518 a 0.38712268,0.38712268 0 0 1 0.15062,0.003 0.38712268,0.38712268 0 0 1 0.24582,0.16523 0.38712268,0.38712268 0 0 1 -0.11233,0.53698 c -2.79558,1.82394 -6.77789,2.00481 -9.19207,0.83014 a 0.38712268,0.38712268 0 0 1 -0.17883,-0.51581 0.38712268,0.38712268 0 0 1 0.51784,-0.17883 c 2.06846,1.00645 5.9051,0.86151 8.42841,-0.7848 a 0.38712268,0.38712268 0 0 1 0.14054,-0.0554 z M 93.5,141.89415 l 1.785725,6.08757 30.288295,-4.27717 -0.52237,-1.8104 z" />
  </g>
</svg>
